<svg width="743" height="743" viewBox="0 0 743 743" fill="none" xmlns="http://www.w3.org/2000/svg">
<path d="M0 0H743V743H0V0Z" fill="black"/>
<path d="M363.015 131.958C376.975 131.915 389.315 131.682 403.253 133.33C455.334 139.963 503.762 163.623 541.003 200.63C584.895 244.246 610.51 308.61 610.675 370.332C610.699 433.322 585.91 493.787 541.677 538.633C496.36 584.049 436.282 611.473 371.719 611.438C307.68 611.257 246.319 585.727 201.051 540.43C156.835 496.45 131.853 436.737 131.58 374.373C131.079 311.435 156.083 250.976 200.891 206.776C204.792 202.944 208.825 199.25 212.984 195.7L213.604 196.183C207.269 202.266 201.211 209.815 195.833 216.797C166.553 254.428 150.06 300.428 148.76 348.091C147.678 404.895 168.885 459.863 207.837 501.221C289.683 587.527 424.112 592.474 509.495 508.323C547.088 471.273 566.216 423.202 567.442 370.654C568.762 317.377 548.636 265.802 511.58 227.5C516.207 221.198 520.73 214.82 525.146 208.369C522.036 204.538 518.746 200.856 515.287 197.337C473.329 154.847 419.153 133.481 359.759 133.08L363.015 131.958Z" fill="#E0E0DF"/>
<path d="M294.453 233.291C322.765 231.514 347.148 253.046 348.887 281.361C350.626 309.676 329.061 334.03 300.744 335.73C272.481 337.428 248.183 315.913 246.448 287.652C244.712 259.391 266.194 235.065 294.453 233.291Z" fill="#E0E0DF"/>
<path d="M376.698 211.906C420.399 214.286 459.242 230.944 488.823 263.728C517.117 295.197 531.54 336.738 528.836 378.97C527.708 399.366 522.619 417.077 514.441 435.582C512.45 440.087 509.96 446.071 507.402 450.2C500.716 446.812 494.123 442.917 487.615 439.173C507.832 403.464 513.358 361.29 503.026 321.578C492.583 283.117 467.046 250.505 432.211 231.144C413.804 220.73 389.826 213.385 368.56 212.406C370.903 212.095 374.241 212.028 376.698 211.906Z" fill="#E0E0DF"/>
<path d="M214.6 346.016C214.574 353.679 213.334 361.396 213.5 369.299C214.859 433.997 261.264 490.358 323.495 506.646C358.816 515.721 396.193 512.259 429.247 496.851C438.872 492.284 443.253 488.546 451.729 483.624C448.778 487.122 440.699 492.915 436.742 495.849C427.459 502.516 417.394 508.021 406.772 512.24C368.292 527.447 325.367 526.87 287.309 510.636C248.718 493.987 218.222 462.829 202.405 423.89C206.786 420.482 211.401 417.594 216.054 414.575C214.518 408.004 212.978 400.93 212.11 394.303C210.665 383.265 210.898 356.264 214.6 346.016Z" fill="#E0E0DF"/>
<path d="M359.451 212.159C364.658 211.543 371.559 210.943 376.698 211.906C374.241 212.028 370.903 212.095 368.56 212.406C366.148 212.838 362.013 212.366 359.451 212.159Z" fill="#353739"/>
<path d="M359.759 133.08C356.262 133.279 353.185 133.034 349.696 132.827C350.181 132.364 361.286 132.022 363.015 131.958L359.759 133.08Z" fill="#838885"/>
<path d="M212.984 195.7C214.273 194.246 215.022 193.021 216.843 192.523L217.024 193.175C215.919 194.659 215.088 195.117 213.604 196.183L212.984 195.7Z" fill="#353739"/>
</svg>
